<svg width="0" height="0" class="hidden">
  <symbol fill="none" xmlns="http://www.w3.org/2000/svg" viewBox="0 0 20 20" id="u_file-search-alt">
    <path d="M10 16.667H4.167a.833.833 0 01-.834-.834V4.167a.833.833 0 01.834-.834h4.166v2.5a2.5 2.5 0 002.5 2.5h2.5v.834a.834.834 0 001.667 0V7.45a1.09 1.09 0 00-.05-.225V7.15a.89.89 0 00-.158-.233l-5-5a.892.892 0 00-.234-.159.267.267 0 00-.075 0 .733.733 0 00-.275-.091H4.167a2.5 2.5 0 00-2.5 2.5v11.666a2.5 2.5 0 002.5 2.5H10a.834.834 0 000-1.666zm0-12.159l2.158 2.159h-1.325A.833.833 0 0110 5.833V4.508zM5.833 6.667a.833.833 0 000 1.666h.834a.833.833 0 000-1.666h-.834zm12.259 10.241l-.975-.966a2.867 2.867 0 00-.45-3.442 2.908 2.908 0 00-5 2.075 2.883 2.883 0 004.275 2.542l.966.975a.833.833 0 001.184 0 .834.834 0 000-1.184zM15.45 15.45a1.283 1.283 0 01-1.758 0 1.25 1.25 0 01.008-1.758c.222-.221.52-.35.833-.359a1.227 1.227 0 011.3 1.242 1.25 1.25 0 01-.383.875zM10.833 10h-5a.833.833 0 100 1.667h5a.833.833 0 000-1.667zm-1.666 5a.833.833 0 100-1.667H5.833a.833.833 0 100 1.667h3.334z" fill="#0C1427"></path>
  </symbol>
  <symbol fill="none" xmlns="http://www.w3.org/2000/svg" viewBox="0 0 20 20" id="u_wrench">
    <path d="M18.092 12.983l-3.767-3.758c.079-.384.118-.775.117-1.167A6.392 6.392 0 005.35 2.267a.833.833 0 00-.242 1.35l3.625 3.616-1.5 1.5-3.616-3.625a.833.833 0 00-.734-.225.833.833 0 00-.616.467 6.392 6.392 0 007 8.975l3.758 3.767a.833.833 0 001.183 0 .834.834 0 000-1.184l-4.083-4.083a.833.833 0 00-.792-.217 4.897 4.897 0 01-1.233.167 4.726 4.726 0 01-4.767-4.717 5 5 0 01.067-.833L6.667 10.5a.833.833 0 001.183 0l2.65-2.675a.833.833 0 000-1.158L7.258 3.4a5.1 5.1 0 01.834-.067 4.725 4.725 0 014.716 4.725 4.902 4.902 0 01-.166 1.234.833.833 0 00.216.791l4.084 4.084a.837.837 0 001.183-1.184h-.033z" fill="#0C1427"></path>
  </symbol>
  <symbol fill="none" xmlns="http://www.w3.org/2000/svg" viewBox="0 0 20 20" id="u_clipboard-alt">
    <path d="M12.5 11.667h-5a.834.834 0 000 1.666h5a.833.833 0 100-1.666zm0-3.334H9.167a.833.833 0 100 1.667H12.5a.833.833 0 100-1.667zm1.667-5h-.984a2.5 2.5 0 00-2.35-1.666H9.167a2.5 2.5 0 00-2.35 1.666h-.984a2.5 2.5 0 00-2.5 2.5v10a2.5 2.5 0 002.5 2.5h8.334a2.5 2.5 0 002.5-2.5v-10a2.5 2.5 0 00-2.5-2.5zm-5.834.834a.833.833 0 01.834-.834h1.666a.833.833 0 01.834.834V5H8.333v-.833zM15 15.833a.833.833 0 01-.833.834H5.833A.833.833 0 015 15.833v-10A.833.833 0 015.833 5h.834v.833a.833.833 0 00.833.834h5a.833.833 0 00.833-.834V5h.834a.833.833 0 01.833.833v10z" fill="#0C1427"></path>
  </symbol>
  <symbol fill="none" xmlns="http://www.w3.org/2000/svg" viewBox="0 0 20 20" id="u_chart">
    <path d="M10 5a.833.833 0 00-.833.833v8.334a.833.833 0 001.666 0V5.833A.833.833 0 0010 5zm-4.167 5a.833.833 0 00-.833.833v3.334a.833.833 0 001.667 0v-3.334A.833.833 0 005.833 10zm8.334-1.667a.833.833 0 00-.834.834v5a.834.834 0 001.667 0v-5a.833.833 0 00-.833-.834zm1.666-6.666H4.167a2.5 2.5 0 00-2.5 2.5v11.666a2.5 2.5 0 002.5 2.5h11.666a2.5 2.5 0 002.5-2.5V4.167a2.5 2.5 0 00-2.5-2.5zm.834 14.166a.833.833 0 01-.834.834H4.167a.833.833 0 01-.834-.834V4.167a.833.833 0 01.834-.834h11.666a.833.833 0 01.834.834v11.666z" fill="#0C1427"></path>
  </symbol>
  <symbol fill="none" xmlns="http://www.w3.org/2000/svg" viewBox="0 0 20 20" id="u_users-alt">
    <path d="M10.25 10.183a4.1 4.1 0 001.417-3.1 4.167 4.167 0 10-8.334 0 4.1 4.1 0 001.417 3.1A6.667 6.667 0 00.833 16.25a.833.833 0 101.667 0 5 5 0 1110 0 .833.833 0 101.667 0 6.666 6.666 0 00-3.917-6.067zm-2.75-.6a2.5 2.5 0 110-5 2.5 2.5 0 010 5zm8.117.267A4.166 4.166 0 0012.5 2.917a.833.833 0 000 1.666 2.5 2.5 0 012.5 2.5 2.5 2.5 0 01-1.25 2.159.832.832 0 00-.042 1.416l.325.217.109.058a5.833 5.833 0 013.333 5.317.833.833 0 101.667 0 7.499 7.499 0 00-3.525-6.4z" fill="#0C1427"></path>
  </symbol>
  <symbol fill="none" xmlns="http://www.w3.org/2000/svg" viewBox="0 0 20 20" id="u_create-dashboard">
    <path d="M8.333 10.833h-5a.833.833 0 00-.833.834v5a.833.833 0 00.833.833h5a.833.833 0 00.834-.833v-5a.833.833 0 00-.834-.834zm-.833 5H4.167V12.5H7.5v3.333zM16.667 2.5h-5a.833.833 0 00-.834.833v5a.833.833 0 00.834.834h5a.833.833 0 00.833-.834v-5a.833.833 0 00-.833-.833zm-.834 5H12.5V4.167h3.333V7.5zm.834 5.833H15v-1.666a.833.833 0 00-1.667 0v1.666h-1.666a.833.833 0 000 1.667h1.666v1.667a.833.833 0 001.667 0V15h1.667a.833.833 0 000-1.667zM8.333 2.5h-5a.833.833 0 00-.833.833v5a.833.833 0 00.833.834h5a.833.833 0 00.834-.834v-5a.833.833 0 00-.834-.833zm-.833 5H4.167V4.167H7.5V7.5z" fill="#0C1427"></path>
  </symbol>
</svg>